<svg width="40px" height="40px" viewBox="0 0 60 59" fill="none" xmlns="http://www.w3.org/2000/svg">
<path d="M58.5234 12.7422C58.5234 12.7422 58.0078 9.67188 57.3047 8.73438C56.4141 7.53907 53.4609 5.89843 53.4609 5.89843C52.8516 6.76562 54.3047 3.60156 55.1719 0.578119C55.1719 0.578119 49.5 1.32813 44.2031 7.04688C42.7031 8.6875 40.0312 16.0937 40.0312 16.0937L29.5547 20.8984C22.2656 23.9219 10.1719 27.0391 10.1719 43.7969V50.9453C9.58594 50.5469 6.49219 47.9687 6.53907 43.9375C6.56251 40.75 6.98437 37.4922 7.38281 34.5859C8.10937 29.2656 8.67189 23.5469 6.51564 21.0859C5.53126 19.9609 4.12499 19.375 2.36718 19.375C1.21874 19.375 0.281239 20.3125 0.281239 21.4609C0.281239 22.6094 1.21874 23.5469 2.36718 23.5469C2.88281 23.5469 3.21094 23.6406 3.37501 23.8281C4.26563 24.8594 3.72657 30.4141 3.23439 34C2.83595 37.0234 2.36718 40.4453 2.36718 43.8906C2.36718 47.6875 3.6797 51.25 6.04689 53.9219C8.7422 56.9453 12.5391 58.5391 17.0156 58.5391H31.6641H33.75H37.9453C39.0938 58.5391 40.0312 57.6016 40.0312 56.4531C40.0312 55.3047 39.0938 54.3672 37.9453 54.3672H33.3516L35.5781 47.0313C35.5781 45.9766 35.3437 44.9687 34.9453 44.0781C33.2812 41.2422 30.2812 39.4844 26.9766 39.4844C25.5234 39.4844 24.1641 39.8125 22.875 40.4453L22.1953 39.0859C23.6953 38.3359 25.2891 37.9609 26.9766 37.9609C30.9141 37.9609 34.5469 40.1172 36.4219 43.5859C36.4219 43.5859 44.1797 55.4688 44.9531 57.1562C44.9531 57.1797 44.9766 57.1797 44.9766 57.2031C45.1875 57.8359 45.7031 58.3047 46.3594 58.4453C46.3828 58.4453 46.4062 58.4453 46.4297 58.4687C46.5469 58.4922 46.6406 58.5391 46.7578 58.5391H49.0547C50.0859 58.5391 50.9531 57.6953 50.9531 56.6406C50.9531 55.6094 50.1094 54.7422 49.0547 54.7422H49.1016C49.1016 54.7422 42.8672 43.6328 44.0859 39.6953C49.6406 30.9766 52.6406 22.7031 52.6406 22.7031C53.8359 19.9844 56.9062 17.8984 57.3281 17.6172C58.2656 16.9844 59.5547 16.1875 59.6719 14.9688C59.7187 14.4297 58.8281 13.2578 58.5234 12.7422Z" fill="#BC1529"/>
</svg>
