<svg width="60" height="61" viewBox="0 0 60 61" fill="none" xmlns="http://www.w3.org/2000/svg">
<path d="M24.037 18.4388C27.7324 19.7919 32.1695 16.9475 33.9488 12.0862C35.727 7.2248 34.1732 2.18832 30.4784 0.836093C26.7821 -0.515078 22.3455 2.32848 20.5664 7.18976C18.7881 12.0512 20.3419 17.0877 24.037 18.4388Z" fill="#bc1529"/>
<path d="M9.99562 26.1921C13.8613 25.8569 16.6376 21.4643 16.1982 16.3776C15.758 11.2927 12.2672 7.44172 8.40152 7.775C4.53621 8.11121 1.76004 12.5047 2.19984 17.5905C2.64023 22.6754 6.13043 26.5263 9.99562 26.1921Z" fill="#bc1529"/>
<path d="M40.1011 26.0197C43.4939 28.0139 48.3689 26.0111 50.9909 21.5485C53.6128 17.083 52.9878 11.8503 49.5946 9.85625C46.2019 7.86395 41.3258 9.86762 38.7043 14.3302C36.0826 18.795 36.7084 24.0275 40.1011 26.0197Z" fill="#bc1529"/>
<path d="M58.2725 31.31C56.0728 28.1142 50.8815 27.8671 46.6764 30.7599C42.4703 33.6546 40.8449 38.5906 43.044 41.7874C45.2432 44.9831 50.4349 45.2304 54.6402 42.3365C58.8449 39.4428 60.4712 34.5068 58.2725 31.31Z" fill="#bc1529"/>
<path d="M35.6849 31.9132C35.2653 29.0101 33.4857 26.3625 30.6412 25.0197C27.7973 23.6779 24.6219 23.9877 22.1149 25.5083C19.3439 27.1899 17.5713 29.3867 15.1847 30.347C12.7984 31.3071 6.11438 28.4475 1.95281 36.0045C-0.986367 41.3422 1.71176 48.0898 7.2218 50.6899C11.4098 52.6661 14.7245 52.4455 17.1579 53.5931C19.5909 54.7407 21.5278 57.4404 25.7155 59.4164C31.2254 62.0165 38.1491 59.8104 40.4009 54.148C43.5891 46.1315 37.1317 42.7899 36.3553 40.3374C35.5796 37.8853 36.1488 35.1202 35.6849 31.9132Z" fill="#bc1529"/>
</svg>
